/* XPM */
static char * collectable_xpm[] = {
"32 32 578 2",
"  	c None",
". 	c #3E3E2F",
"+ 	c #4C4C3D",
"@ 	c #4E4E3F",
"# 	c #4D4D3E",
"$ 	c #505040",
"% 	c #60604C",
"& 	c #909072",
"* 	c #9F9F81",
"= 	c #A0A083",
"- 	c #A1A183",
"; 	c #99997C",
"> 	c #646450",
", 	c #636350",
"' 	c #98987C",
") 	c #A0A082",
"! 	c #A2A284",
"~ 	c #A0A081",
"{ 	c #6D6D55",
"] 	c #5E5E48",
"^ 	c #6E6E5A",
"/ 	c #848475",
"( 	c #6C6C59",
"_ 	c #5B5B47",
": 	c #6C6C56",
"< 	c #A4A385",
"[ 	c #9D9B7E",
"} 	c #494839",
"| 	c #4B4B3C",
"1 	c #909075",
"2 	c #797961",
"3 	c #5E5E4A",
"4 	c #5A5A46",
"5 	c #5C5C47",
"6 	c #585843",
"7 	c #49472E",
"8 	c #525131",
"9 	c #8E8E78",
"0 	c #C7C7C2",
"a 	c #878776",
"b 	c #605F4F",
"c 	c #74715F",
"d 	c #ADAB8C",
"e 	c #989272",
"f 	c #5D5A47",
"g 	c #96967A",
"h 	c #6B6B55",
"i 	c #595945",
"j 	c #555542",
"k 	c #393928",
"l 	c #303120",
"m 	c #49461E",
"n 	c #756722",
"o 	c #847146",
"p 	c #979479",
"q 	c #C0C0A6",
"r 	c #E0E0D9",
"s 	c #BEBEAE",
"t 	c #BFBDAF",
"u 	c #B7AD9B",
"v 	c #B1AE90",
"w 	c #AAA989",
"x 	c #9B9A7D",
"y 	c #3F4030",
"z 	c #8E8E70",
"A 	c #A6A485",
"B 	c #A9A989",
"C 	c #9A9A7D",
"D 	c #58563E",
"E 	c #635A26",
"F 	c #91873B",
"G 	c #DCBE26",
"H 	c #E6C769",
"I 	c #ECE4C4",
"J 	c #ECEBDD",
"K 	c #EEEEE8",
"L 	c #E6E5DA",
"M 	c #DBD7CC",
"N 	c #9F9585",
"O 	c #7B795B",
"P 	c #767556",
"Q 	c #7D785E",
"R 	c #9A997D",
"S 	c #4D4E3E",
"T 	c #504D39",
"U 	c #857C5E",
"V 	c #979573",
"W 	c #838364",
"X 	c #726A3A",
"Y 	c #CBBA57",
"Z 	c #EBE38D",
"` 	c #ECD865",
" .	c #F5E679",
"..	c #F6E083",
"+.	c #FAF3BB",
"@.	c #F9F8DC",
"#.	c #E4DE9F",
"$.	c #CAB97E",
"%.	c #928C68",
"&.	c #797959",
"*.	c #777757",
"=.	c #838263",
"-.	c #A1A182",
";.	c #483F2B",
">.	c #82795B",
",.	c #9F9E7E",
"'.	c #979667",
").	c #E1DD90",
"!.	c #F5F1C0",
"~.	c #F0E78D",
"{.	c #E7CF49",
"].	c #EECE2C",
"^.	c #EED67C",
"/.	c #F4ECC9",
"(.	c #E4D186",
"_.	c #C3B986",
":.	c #B4B18E",
"<.	c #ADAD8C",
"[.	c #ACAC8B",
"}.	c #A8A786",
"|.	c #404030",
"1.	c #504C38",
"2.	c #959474",
"3.	c #A9A985",
"4.	c #A7A475",
"5.	c #BDA96B",
"6.	c #CFB249",
"7.	c #D4B318",
"8.	c #C8A719",
"9.	c #C6AC5C",
"0.	c #D0C7A3",
"a.	c #CABB9B",
"b.	c #B9AC8A",
"c.	c #B2A684",
"d.	c #A2A07E",
"e.	c #9A9877",
"f.	c #353021",
"g.	c #7F7758",
"h.	c #9B9978",
"i.	c #A7A483",
"j.	c #97874E",
"k.	c #D1A816",
"l.	c #D3AF1A",
"m.	c #D7B949",
"n.	c #C1AC7A",
"o.	c #B5AA88",
"p.	c #A39D7E",
"q.	c #9B9574",
"r.	c #958B69",
"s.	c #938E6D",
"t.	c #7D7455",
"u.	c #49402C",
"v.	c #0F0300",
"w.	c #423117",
"x.	c #71643E",
"y.	c #847A58",
"z.	c #A89C7B",
"A.	c #867C50",
"B.	c #BA9C29",
"C.	c #E1C349",
"D.	c #C9B479",
"E.	c #B6A783",
"F.	c #A49772",
"G.	c #9A875E",
"H.	c #91805A",
"I.	c #9A8D66",
"J.	c #8B7955",
"K.	c #65512F",
"L.	c #513B1C",
"M.	c #3C2B0A",
"N.	c #554733",
"O.	c #805E31",
"P.	c #956A26",
"Q.	c #926D3F",
"R.	c #AC9A78",
"S.	c #877F5D",
"T.	c #918559",
"U.	c #BDAB7A",
"V.	c #A1936F",
"W.	c #AB8649",
"X.	c #BC9147",
"Y.	c #A17B35",
"Z.	c #B18842",
"`.	c #9D7032",
" +	c #976B27",
".+	c #694C21",
"++	c #A1783D",
"@+	c #805E1F",
"#+	c #432B04",
"$+	c #706759",
"%+	c #A3987A",
"&+	c #9E916E",
"*+	c #916E3F",
"=+	c #916B3F",
"-+	c #AB9978",
";+	c #ADA07F",
">+	c #AEA180",
",+	c #B1A482",
"'+	c #9B906F",
")+	c #8A6A41",
"!+	c #9D6E2C",
"~+	c #9C7126",
"{+	c #9D6F1F",
"]+	c #936A1F",
"^+	c #80551F",
"/+	c #734816",
"(+	c #4B330C",
"_+	c #7E5C1E",
":+	c #764D14",
"<+	c #69400D",
"[+	c #2F1A03",
"}+	c #797065",
"|+	c #BDB19E",
"1+	c #BFB79A",
"2+	c #B4A886",
"3+	c #9E9471",
"4+	c #8B7D5A",
"5+	c #837B5A",
"6+	c #959170",
"7+	c #999675",
"8+	c #958F6E",
"9+	c #806844",
"0+	c #805F29",
"a+	c #835928",
"b+	c #825926",
"c+	c #805523",
"d+	c #7F5A2B",
"e+	c #685B38",
"f+	c #423921",
"g+	c #2C2715",
"h+	c #342405",
"i+	c #503407",
"j+	c #74540D",
"k+	c #372603",
"l+	c #7A6F66",
"m+	c #BFB2A1",
"n+	c #C6BDA4",
"o+	c #C5B9A1",
"p+	c #BCAC8C",
"q+	c #B0A482",
"r+	c #9A9473",
"s+	c #8B805F",
"t+	c #7B7657",
"u+	c #757252",
"v+	c #74704E",
"w+	c #706744",
"x+	c #756A46",
"y+	c #827351",
"z+	c #756946",
"A+	c #6F6542",
"B+	c #6C6745",
"C+	c #656242",
"D+	c #59593B",
"E+	c #3E351F",
"F+	c #633E0E",
"G+	c #72530D",
"H+	c #362703",
"I+	c #7A7066",
"J+	c #C1B2A3",
"K+	c #CEBDAC",
"L+	c #C7BAA5",
"M+	c #BFB89B",
"N+	c #B8AB89",
"O+	c #A39E7C",
"P+	c #A39D7B",
"Q+	c #AD9E7E",
"R+	c #97866D",
"S+	c #88795C",
"T+	c #867A59",
"U+	c #867B59",
"V+	c #897F5D",
"W+	c #928D6C",
"X+	c #887E5D",
"Y+	c #847554",
"Z+	c #847654",
"`+	c #867A58",
" @	c #837857",
".@	c #706B49",
"+@	c #615D3E",
"@@	c #443920",
"#@	c #352606",
"$@	c #291402",
"%@	c #0E0500",
"&@	c #5C544C",
"*@	c #C0B1A2",
"=@	c #CFBEAD",
"-@	c #C9B7A6",
";@	c #BEAD98",
">@	c #BAB496",
",@	c #B4A987",
"'@	c #A69F7D",
")@	c #B3A583",
"!@	c #B39F7E",
"~@	c #9E8466",
"{@	c #998A72",
"]@	c #979373",
"^@	c #979473",
"/@	c #989876",
"(@	c #959270",
"_@	c #8C805E",
":@	c #8B7D5B",
"<@	c #95916F",
"[@	c #94916F",
"}@	c #897F5E",
"|@	c #827756",
"1@	c #656042",
"2@	c #32311F",
"3@	c #23190A",
"4@	c #513B1D",
"5@	c #5D411F",
"6@	c #643A11",
"7@	c #2B1502",
"8@	c #7B7167",
"9@	c #CBBCAB",
"0@	c #CBBCA9",
"a@	c #BDAA97",
"b@	c #AF9576",
"c@	c #B1A087",
"d@	c #A69C7D",
"e@	c #B3A07E",
"f@	c #A28563",
"g@	c #9C7F5E",
"h@	c #A29979",
"i@	c #9D9C7B",
"j@	c #9B9B79",
"k@	c #9A9674",
"l@	c #9C9775",
"m@	c #9D9A78",
"n@	c #969271",
"o@	c #8F8564",
"p@	c #999977",
"q@	c #979574",
"r@	c #94906F",
"s@	c #837856",
"t@	c #645F41",
"u@	c #5C4B2D",
"v@	c #A27942",
"w@	c #A67B42",
"x@	c #744A1E",
"y@	c #2C1502",
"z@	c #C1B1A2",
"A@	c #CDBEAB",
"B@	c #C2B9A0",
"C@	c #B8A992",
"D@	c #A48665",
"E@	c #A0815F",
"F@	c #A18663",
"G@	c #B19C78",
"H@	c #A48864",
"I@	c #9C7B56",
"J@	c #9F8763",
"K@	c #A69F7B",
"L@	c #A69E7B",
"M@	c #A08865",
"N@	c #AA9272",
"O@	c #B1A281",
"P@	c #9E9B79",
"Q@	c #979674",
"R@	c #999876",
"S@	c #8C805F",
"T@	c #7C6B4B",
"U@	c #675233",
"V@	c #543D1F",
"W@	c #37210A",
"X@	c #7A7167",
"Y@	c #CCBCAB",
"Z@	c #CEBEAC",
"`@	c #C6BBA4",
" #	c #BAB393",
".#	c #AA8F63",
"+#	c #A78554",
"@#	c #A98759",
"##	c #AD8C5E",
"$#	c #AB8959",
"%#	c #AB8658",
"&#	c #AB8759",
"*#	c #AC8D60",
"=#	c #AA8C60",
"-#	c #AB8C64",
";#	c #B7A48B",
">#	c #B7AA8A",
",#	c #A29E7C",
"'#	c #9A9977",
")#	c #9D9B79",
"!#	c #8B7C5A",
"~#	c #877654",
"{#	c #766749",
"]#	c #312A1C",
"^#	c #5B534B",
"/#	c #C1B2A2",
"(#	c #CBBBA9",
"_#	c #C2BBA0",
":#	c #BAB493",
"<#	c #AE9469",
"[#	c #A98758",
"}#	c #AC8660",
"|#	c #B58A63",
"1#	c #B89164",
"2#	c #B98A64",
"3#	c #B98864",
"4#	c #B78863",
"5#	c #AF8965",
"6#	c #AF9474",
"7#	c #B9B393",
"8#	c #BAB593",
"9#	c #A19D7B",
"0#	c #9A9A78",
"a#	c #A29D7B",
"b#	c #989674",
"c#	c #8D815F",
"d#	c #897856",
"e#	c #7E6E4E",
"f#	c #372F20",
"g#	c #5D554D",
"h#	c #CBBBAB",
"i#	c #C5B6A3",
"j#	c #B7A891",
"k#	c #AF9B7A",
"l#	c #A1805C",
"m#	c #A67B59",
"n#	c #AC8562",
"o#	c #B78A64",
"p#	c #B98866",
"q#	c #B98967",
"r#	c #B99172",
"s#	c #B9A68F",
"t#	c #BBB497",
"u#	c #BBAE8D",
"v#	c #BAAA88",
"w#	c #B3A684",
"x#	c #B9A987",
"y#	c #C8B9A6",
"z#	c #BBAC98",
"A#	c #9E8E72",
"B#	c #937E5D",
"C#	c #967654",
"D#	c #997755",
"E#	c #9E7B58",
"F#	c #A88458",
"G#	c #AB865A",
"H#	c #AB8662",
"I#	c #AA8664",
"J#	c #AC8A68",
"K#	c #B59C7D",
"L#	c #B6A38F",
"M#	c #B7A790",
"N#	c #B9A98A",
"O#	c #BBAA88",
"P#	c #B7A886",
"Q#	c #A8A07E",
"R#	c #C0BB9E",
"S#	c #BAB696",
"T#	c #B1A383",
"U#	c #987E61",
"V#	c #92775A",
"W#	c #927E5C",
"X#	c #967755",
"Y#	c #997753",
"Z#	c #997855",
"`#	c #997856",
" $	c #9A7957",
".$	c #9C7D5C",
"+$	c #9D7F62",
"@$	c #A38B6F",
"#$	c #AFA584",
"$$	c #B9AA88",
"%$	c #B8A886",
"&$	c #B6A886",
"*$	c #9F9C7A",
"=$	c #8A7C5A",
"-$	c #77684A",
";$	c #362E1F",
">$	c #756C61",
",$	c #BCB09C",
"'$	c #BEBB9C",
")$	c #BBBB99",
"!$	c #B6A891",
"~$	c #B1A38D",
"{$	c #9F9577",
"]$	c #8B704F",
"^$	c #896848",
"/$	c #8E6F4E",
"($	c #896949",
"_$	c #886646",
":$	c #896849",
"<$	c #8F7052",
"[$	c #947B5D",
"}$	c #A9967D",
"|$	c #B7A787",
"1$	c #9E9B7A",
"2$	c #999877",
"3$	c #827555",
"4$	c #493F2B",
"5$	c #4D4C3E",
"6$	c #A7A488",
"7$	c #BAB897",
"8$	c #BBB999",
"9$	c #B5B193",
"0$	c #93826B",
"a$	c #82684D",
"b$	c #81654C",
"c$	c #9A8466",
"d$	c #83664E",
"e$	c #81634D",
"f$	c #89715B",
"g$	c #A3927B",
"h$	c #AAA181",
"i$	c #B3A585",
"j$	c #B6A786",
"k$	c #8B7F5E",
"l$	c #77694B",
"m$	c #352E1E",
"n$	c #66624E",
"o$	c #A79D7E",
"p$	c #BAB694",
"q$	c #BBB997",
"r$	c #BAB595",
"s$	c #B2A58D",
"t$	c #9F977A",
"u$	c #816B52",
"v$	c #9A8769",
"w$	c #8B735C",
"x$	c #A18F71",
"y$	c #A9A080",
"z$	c #B5A787",
"A$	c #B2A685",
"B$	c #796A4C",
"C$	c #675D4A",
"D$	c #A5987A",
"E$	c #AFA282",
"F$	c #B5A988",
"G$	c #B7AA89",
"H$	c #B5A989",
"I$	c #A59F7F",
"J$	c #877354",
"K$	c #948061",
"L$	c #9B8972",
"M$	c #B0A181",
"N$	c #B5A886",
"O$	c #8B805E",
"P$	c #78694B",
"Q$	c #4C4435",
"R$	c #605945",
"S$	c #8D896B",
"T$	c #949171",
"U$	c #959373",
"V$	c #9A9776",
"W$	c #958765",
"X$	c #91795D",
"Y$	c #998B73",
"Z$	c #9F9A7A",
"`$	c #9C9876",
" %	c #837656",
".%	c #817454",
"+%	c #77684B",
"@%	c #463D2A",
"#%	c #3C3D2D",
"$%	c #3E3F2F",
"%%	c #53533F",
"&%	c #868668",
"*%	c #8E896C",
"=%	c #8C7F69",
"-%	c #8E896D",
";%	c #8E8E6E",
">%	c #8C8A6B",
",%	c #837959",
"'%	c #817455",
")%	c #817555",
"!%	c #7E6F4F",
"~%	c #372F1F",
"{%	c #332B1C",
"]%	c #110D07",
"^%	c #3D3D2E",
"/%	c #3F3E2F",
"(%	c #3F3A30",
"_%	c #3F402F",
":%	c #3E3D2D",
"<%	c #383222",
"                          . + @ @ @ @ @ +                       ",
"            # $ $ $ $ $ % & * = - - - = ; > #                   ",
"          , ' = ) ) ) ) ! ~ { ] ^ / ( _ : < [ }                 ",
"        | 1 2 3 4 4 _ _ 5 6 7 8 9 0 a b c d e f                 ",
"          , g h i j k l m n o p q r s t u v w x ,               ",
"          y z A B C D E F G H I J K L M N O P Q R S             ",
"            T U V W X Y Z `  ...+.@.#.$.%.&.*.=.-.#             ",
"              ;.>.,.'.).!.~.{.].^./.(._.:.<.[.}.z |.            ",
"                1.2.3.4.5.6.7.8.9.0.a.b.c.d.e.U T               ",
"                f.g.h.i.j.k.l.m.n.o.p.q.r.s.t.u.                ",
"              v.w.x.y.z.A.B.C.D.E.F.G.H.I.J.K.  L.M.            ",
"              N.O.P.Q.R.S.T.U.E.V.W.X.Y.Z.`. +.+++@+#+          ",
"            $+%+&+*+=+-+;+>+,+'+)+!+~+{+]+^+/+(+_+:+<+[+        ",
"          }+|+1+2+3+4+5+6+7+8+9+0+a+b+c+d+e+f+g+h+i+j+k+        ",
"        l+m+n+o+p+q+r+s+t+u+v+w+x+y+z+A+w+B+C+D+E+F+G+H+        ",
"      I+J+K+L+M+N+O+P+Q+R+S+T+U+V+W+X+Y+Z+`+ @.@+@@@#@      $@%@",
"    &@*@=@-@;@>@,@'@)@!@~@{@]@^@V /@(@_@:@<@[@}@|@1@2@3@4@5@6@7@",
"    8@9@0@a@b@c@d@)@e@f@g@h@i@j@k@l@m@n@o@V p@q@r@s@t@u@v@w@x@y@",
"  &@z@A@B@C@D@E@F@G@H@I@I@J@K@L@M@N@O@P@Q@R@p@p@V S@Y+T@U@V@W@  ",
"  X@Y@Z@`@ #.#+#@###$#%#%#&#*#=#-#;#>#,#'#p@'#)#p@<@!#~#{#]#    ",
"^#/#=@(#_#:#<#[#}#|#1#2#3#3#4#5#6#7#8#2+9#0#a#q+a#b#c#d#e#f#    ",
"g#h#=@(#i#j#k#l#m#n#o#3#p#p#q#r#s#t#u#v#w#,#w#x#q+m@<@!#e#f#    ",
"g#h#=@y#z#A#B#C#D#E#F#G#H#I#J#K#L#M#N#O#P#Q#P#P#O+'#^@:@e#f#    ",
"^#*@0@R#S#T#U#V#W#X#Y#Y#Z#`# $.$+$@$#$$$v#%$O#&$*$p@^@=$-$;$    ",
"  >$,$'$)$S#!$~${$]$^$/$($_$:$<$[$}$|$O#v#P#&$c.1$2$6+3$4$      ",
"  5$6$7$)$)$8$9$0$a$b$c$d$e$f$g$h$i$j$&$w#,#*$1$'#(@k$l$m$      ",
"    n$o$p$q$q$r$s$t$u$v$w$x$y$z$A$,#*$*$P@'#/@V 6+k$B$4$        ",
"      C$D$E$F$G$H$I$J$K$L$M$N$w#a#'#/@V ^@V (@O$3$P$4$          ",
"        Q$R$S$T$U$V$W$X$Y$Z$*$`$V V 6+c#=$ %.%+%@%m$            ",
"            #%$%%%&%*%=%-%;%>%,%'%)%.%!%-$4$~%{%]%              ",
"                  ^%/%(%/%_%:%<%~%~%~%f#;$                      ",
"                                                                "};
