/* XPM */
static char * exit_xpm[] = {
"32 32 439 2",
"  	c None",
". 	c #B1AEB5",
"+ 	c #AB8EA7",
"@ 	c #EDE8EE",
"# 	c #CBA9E5",
"$ 	c #828894",
"% 	c #7C6F8F",
"& 	c #E1B2E2",
"* 	c #8793D0",
"= 	c #8291B7",
"- 	c #CDC152",
"; 	c #C5B64A",
"> 	c #9E7E3A",
", 	c #E0C067",
"' 	c #DEB62D",
") 	c #AD7A36",
"! 	c #A59122",
"~ 	c #D0B71A",
"{ 	c #D1AD08",
"] 	c #9F8D31",
"^ 	c #CEA60D",
"/ 	c #9E7B10",
"( 	c #C1A20C",
"_ 	c #C59502",
": 	c #FBE51D",
"< 	c #F1C40A",
"[ 	c #B98E24",
"} 	c #BC8D0A",
"| 	c #A08007",
"1 	c #D9B20E",
"2 	c #BD8E11",
"3 	c #8A5002",
"4 	c #E8C521",
"5 	c #B17B0D",
"6 	c #DDAE03",
"7 	c #C19702",
"8 	c #BB8203",
"9 	c #DEB522",
"0 	c #CD9803",
"a 	c #AA7D1A",
"b 	c #C89A02",
"c 	c #C79904",
"d 	c #AE8623",
"e 	c #F0CF29",
"f 	c #8F6D27",
"g 	c #B17F02",
"h 	c #B19A2C",
"i 	c #D7AC03",
"j 	c #BE9703",
"k 	c #D7B503",
"l 	c #B47E0D",
"m 	c #7C661C",
"n 	c #A3862F",
"o 	c #987041",
"p 	c #AD864F",
"q 	c #AB834E",
"r 	c #996D49",
"s 	c #625649",
"t 	c #5A4721",
"u 	c #997A17",
"v 	c #9A7D21",
"w 	c #BB9D1C",
"x 	c #E7C804",
"y 	c #AE7B01",
"z 	c #E0BF0A",
"A 	c #A0650A",
"B 	c #968B6A",
"C 	c #BCA668",
"D 	c #A49C8F",
"E 	c #BDB086",
"F 	c #C6B375",
"G 	c #A7A6A5",
"H 	c #BEB59A",
"I 	c #BDA886",
"J 	c #A39F94",
"K 	c #A99E7A",
"L 	c #A4945D",
"M 	c #6B624D",
"N 	c #343230",
"O 	c #D4B408",
"P 	c #885600",
"Q 	c #9A8B2A",
"R 	c #C5A734",
"S 	c #B19D6A",
"T 	c #B7AF96",
"U 	c #B8AF9A",
"V 	c #BBB18E",
"W 	c #BBAD7A",
"X 	c #AB9E76",
"Y 	c #939396",
"Z 	c #9D998C",
"` 	c #A29878",
" .	c #AFA481",
"..	c #B9AE88",
"+.	c #B1AB98",
"@.	c #ACA282",
"#.	c #A79D79",
"$.	c #917B49",
"%.	c #BB940E",
"&.	c #AC8102",
"*.	c #A68A03",
"=.	c #C59C0F",
"-.	c #A68745",
";.	c #C5B174",
">.	c #A9A7A0",
",.	c #B2ADA3",
"'.	c #C0AE71",
").	c #7C7560",
"!.	c #525355",
"~.	c #46474D",
"{.	c #393B47",
"].	c #363944",
"^.	c #37393E",
"/.	c #47464A",
"(.	c #746E65",
"_.	c #AA9B64",
":.	c #B3A688",
"<.	c #A9A7A2",
"[.	c #BFAF7D",
"}.	c #978351",
"|.	c #615019",
"1.	c #B08503",
"2.	c #754801",
"3.	c #887A55",
"4.	c #B4AE9E",
"5.	c #A5A5AF",
"6.	c #ADAFB2",
"7.	c #9F977F",
"8.	c #605D5C",
"9.	c #4D4F55",
"0.	c #555661",
"a.	c #8E96B7",
"b.	c #A4AED1",
"c.	c #BEC5DC",
"d.	c #B9C1DC",
"e.	c #A6AFD0",
"f.	c #A8B0C3",
"g.	c #5F626C",
"h.	c #88846F",
"i.	c #A6A6A7",
"j.	c #9C9C9E",
"k.	c #ABA5A0",
"l.	c #716751",
"m.	c #31292A",
"n.	c #232028",
"o.	c #BCAB88",
"p.	c #AAABB5",
"q.	c #ADAEBA",
"r.	c #C9C1A7",
"s.	c #51525A",
"t.	c #5A5C67",
"u.	c #272C3D",
"v.	c #878DCA",
"w.	c #C6CCFD",
"x.	c #EDF0FF",
"y.	c #FDFCFF",
"z.	c #FCFBFF",
"A.	c #E2E9FF",
"B.	c #9FACDC",
"C.	c #42454F",
"D.	c #B9AC7D",
"E.	c #A6A8B4",
"F.	c #ABADBD",
"G.	c #B6AA92",
"H.	c #4E4842",
"I.	c #212232",
"J.	c #978D65",
"K.	c #AEA997",
"L.	c #A9A9AC",
"M.	c #BAB3A3",
"N.	c #79735F",
"O.	c #272B2F",
"P.	c #6B6A98",
"Q.	c #ACADDA",
"R.	c #E7E6FE",
"S.	c #F9F8FF",
"T.	c #F4F4FF",
"U.	c #F9F9FD",
"V.	c #D3DCFE",
"W.	c #7A8CC4",
"X.	c #87838A",
"Y.	c #AFABA7",
"Z.	c #AAABBB",
"`.	c #AFAEAD",
" +	c #7F6D4E",
".+	c #212233",
"++	c #B1AA8E",
"@+	c #A3A099",
"#+	c #B2B3B7",
"$+	c #C5BB97",
"%+	c #232A2F",
"&+	c #18252C",
"*+	c #D6D8ED",
"=+	c #FDFBFF",
"-+	c #EBEAFF",
";+	c #DDD6FF",
">+	c #DBD6FF",
",+	c #DCDBFF",
"'+	c #EAE8FF",
")+	c #FAF8FF",
"!+	c #C8CBFE",
"~+	c #8F93CD",
"{+	c #B3AB8A",
"]+	c #A8AAB4",
"^+	c #A6A6A9",
"/+	c #92825B",
"(+	c #212437",
"_+	c #20222E",
":+	c #AEA88C",
"<+	c #A8A9B0",
"[+	c #AAAAAD",
"}+	c #C1B58E",
"|+	c #1B2629",
"1+	c #31384F",
"2+	c #EAE8FD",
"3+	c #EEECFF",
"4+	c #C9BCFF",
"5+	c #DAD7FF",
"6+	c #F9F6FF",
"7+	c #FAF7FF",
"8+	c #DDDCFF",
"9+	c #D1D0FF",
"0+	c #E6E7F1",
"a+	c #C1AE78",
"b+	c #B5BAC3",
"c+	c #AAAAB3",
"d+	c #AA956C",
"e+	c #2B2E3E",
"f+	c #20232F",
"g+	c #9A906B",
"h+	c #C0B48D",
"i+	c #1F272D",
"j+	c #323958",
"k+	c #E0DEFE",
"l+	c #EDE3FF",
"m+	c #E9E2FF",
"n+	c #F8F7FF",
"o+	c #FCFAFF",
"p+	c #E5E1FF",
"q+	c #C4BDFF",
"r+	c #F3EEFF",
"s+	c #FDFCFE",
"t+	c #C5B994",
"u+	c #D2D4D6",
"v+	c #AFB3BF",
"w+	c #B79F6F",
"x+	c #242737",
"y+	c #1C1F2A",
"z+	c #B0A47D",
"A+	c #A2A2A6",
"B+	c #ADAAA4",
"C+	c #92896D",
"D+	c #24272D",
"E+	c #555A78",
"F+	c #F8F7FE",
"G+	c #D5D1FF",
"H+	c #F1ECFF",
"I+	c #FEFDFF",
"J+	c #F7F3FF",
"K+	c #DAC7FF",
"L+	c #ADA997",
"M+	c #BEBDBF",
"N+	c #AAABB6",
"O+	c #B9A47B",
"P+	c #37363C",
"Q+	c #222332",
"R+	c #C1B789",
"S+	c #AAAAB0",
"T+	c #B9B3A5",
"U+	c #7E7763",
"V+	c #64656D",
"W+	c #898B8F",
"X+	c #FBFAFF",
"Y+	c #CCC9FF",
"Z+	c #D3C2FF",
"`+	c #FBF9FF",
" @	c #A8A298",
".@	c #AEA99E",
"+@	c #BEAB81",
"@@	c #403F44",
"#@	c #3E4048",
"$@	c #C1BB8C",
"%@	c #A7A8B3",
"&@	c #ADAAA5",
"*@	c #646466",
"=@	c #818385",
"-@	c #939496",
";@	c #F5F2FF",
">@	c #CDCBFF",
",@	c #BEB1FF",
"'@	c #A49C94",
")@	c #ACA89D",
"!@	c #A9AAB3",
"~@	c #C2B193",
"{@	c #4E4F57",
"]@	c #55575B",
"^@	c #B2A471",
"/@	c #ADACA7",
"(@	c #AA9E72",
"_@	c #323644",
":@	c #55565B",
"<@	c #F4F3FE",
"[@	c #D6D5FF",
"}@	c #BFB9FF",
"|@	c #E8E8F8",
"1@	c #C6B376",
"2@	c #ABA799",
"3@	c #ABABB8",
"4@	c #C3B288",
"5@	c #303340",
"6@	c #2E303B",
"7@	c #A8965C",
"8@	c #B5B1A2",
"9@	c #C8BD97",
"0@	c #B49E60",
"a@	c #282938",
"b@	c #4E4F56",
"c@	c #BEB7FF",
"d@	c #C5C4FF",
"e@	c #EAEAF8",
"f@	c #C5B378",
"g@	c #B8B39E",
"h@	c #C1B798",
"i@	c #BDA161",
"j@	c #24283A",
"k@	c #222333",
"l@	c #AD985E",
"m@	c #A7A7A8",
"n@	c #AEAA93",
"o@	c #B1955B",
"p@	c #232434",
"q@	c #4F5059",
"r@	c #FBFAFE",
"s@	c #C7C2FF",
"t@	c #F0F0FF",
"u@	c #C9C9FF",
"v@	c #F5F6FB",
"w@	c #BEAD7D",
"x@	c #A8A8AF",
"y@	c #B0AB9A",
"z@	c #B89D65",
"A@	c #2A2B3A",
"B@	c #232533",
"C@	c #C0AD6F",
"D@	c #B4B1A4",
"E@	c #B8AF8C",
"F@	c #A38855",
"G@	c #242834",
"H@	c #6D6E79",
"I@	c #E9DEFF",
"J@	c #E7DCFF",
"K@	c #FEFCFF",
"L@	c #BAC1FE",
"M@	c #E5E6FF",
"N@	c #AFA89A",
"O@	c #B5AEA1",
"P@	c #BBB296",
"Q@	c #C5AC6C",
"R@	c #594D43",
"S@	c #B39D5D",
"T@	c #AE9F6A",
"U@	c #B3A56E",
"V@	c #A68942",
"W@	c #3C2726",
"X@	c #625A5C",
"Y@	c #E7E4E0",
"Z@	c #E2D6FF",
"`@	c #DBC8FF",
" #	c #EEE6FF",
".#	c #F2F2FF",
"+#	c #E6E5FF",
"@#	c #D4D5FF",
"##	c #D0D9FF",
"$#	c #E1E8F8",
"%#	c #948F7E",
"&#	c #B0A065",
"*#	c #AEA270",
"=#	c #B99D52",
"-#	c #695431",
";#	c #302426",
">#	c #3E1D0F",
",#	c #9B7D30",
"'#	c #D4A512",
")#	c #D1A329",
"!#	c #D29E11",
"~#	c #D4A931",
"{#	c #854902",
"]#	c #703000",
"^#	c #B2A9B7",
"/#	c #F8F8FF",
"(#	c #F3EFFF",
"_#	c #EAE0FF",
":#	c #E2DBFF",
"<#	c #D9D9FF",
"[#	c #E9EDFF",
"}#	c #FBFBFF",
"|#	c #ECF0FE",
"1#	c #9BAEEA",
"2#	c #CAA62F",
"3#	c #CF9E20",
"4#	c #D6AA24",
"5#	c #D2A634",
"6#	c #BD880F",
"7#	c #642F03",
"8#	c #572700",
"9#	c #F5D004",
"0#	c #EEC91B",
"a#	c #EEBD08",
"b#	c #F9D60D",
"c#	c #945602",
"d#	c #753500",
"e#	c #8E82B9",
"f#	c #C5BDFF",
"g#	c #EFEEFF",
"h#	c #F1F3FF",
"i#	c #FCFCFF",
"j#	c #DDE6FF",
"k#	c #9CB5F6",
"l#	c #E7CA29",
"m#	c #EAB91E",
"n#	c #F9D611",
"o#	c #EFC31F",
"p#	c #E1B403",
"q#	c #672D01",
"r#	c #562600",
"s#	c #CE9B13",
"t#	c #CA9402",
"u#	c #CA9102",
"v#	c #CC9A01",
"w#	c #874C00",
"x#	c #723200",
"y#	c #BCB1FF",
"z#	c #F8F4FF",
"A#	c #FDFDFF",
"B#	c #D2DEFF",
"C#	c #C29828",
"D#	c #CA9308",
"E#	c #BC8202",
"F#	c #6E3201",
"                            . +                                 ",
"                            @ # $                               ",
"                          % & * =                               ",
"                      - ; > , ' ) ! ~ {                         ",
"                  ] ^ / ( _ : < [ } | 1 2                       ",
"              3   4 5 6 7 8 9 0 a b c d e f   g                 ",
"            h i j k l m n o p q r s t u v w x y                 ",
"              z A B C D E F G H I J K L M N O P                 ",
"          Q   R S T U V W X Y Z `  ...+.@.#.$.%.&.*.            ",
"          =.-.;.>.,.'.).!.~.{.].^./.(._.:.<.[.}.|.1.2.          ",
"          3.4.5.6.7.8.9.0.a.b.c.d.e.f.g.h.i.j.k.l.m.n.          ",
"          o.p.q.r.s.t.u.v.w.x.y.y.z.A.B.C.D.E.F.G.H.I.          ",
"        J.K.L.M.N.O.P.Q.R.z.S.z.T.U.z.V.W.X.Y.Z.`. +.+          ",
"        ++@+#+$+%+&+*+=+y.-+;+>+,+'+)+y.!+~+{+]+^+/+(+_+        ",
"        :+<+[+}+|+1+2+=+3+4+5+6+7+8+9+'+z.0+a+b+c+d+e+f+        ",
"        g+L.L.h+i+j+k+l+m+n+y.    o+p+q+r+s+t+u+v+w+x+y+        ",
"        z+A+B+C+D+E+F+G+H+I+          J+K+s+L+M+N+O+P+Q+        ",
"        R+S+T+U+V+W+X+Y+n+            y.Z+`+ @.@[++@@@#@        ",
"        $@%@&@*@=@-@;@>@I+            z.,@F+'@)@!@~@{@]@        ",
"        ^@/@%@(@_@:@<@[@y.            y.}@|@1@2@3@4@5@6@        ",
"        7@8@9@0@a@b@F+c@z.            y.d@e@f@g@h@i@j@k@        ",
"        l@m@n@o@p@q@r@s@=+I+          t@u@v@w@x@y@z@A@B@        ",
"        C@D@E@F@G@H@s+I@J@7+K@      X+L@M@s+N@O@P@Q@R@k@        ",
"        S@T@U@V@W@X@Y@z.Z@`@ #n+.#+#@###z.$#%#&#*#=#-#;#>#      ",
"      ,#'#)#!#~#{#]#^#/#=+(#_#:#<#+#[#}#|#1#2#3#4#5#6#7#8#      ",
"        9#0#a#b#c#d#e#f#-+y.T.g#h#`+y.i#j#k#l#m#n#o#p#q#r#      ",
"        s#t#u#v#w#x#    y#T.y.z#z#K@A#B#    C#D#v#u#E#F#r#      ",
"                                                                ",
"                                                                ",
"                                                                ",
"                                                                ",
"                                                                "};
