/* XPM */
static char *_f767b79378b4ba6e800b622852d4096YaiZEFh4YIE9u685[] = {
/* columns rows colors chars-per-pixel */
"63 64 249 2 ",
"   c None",
".  c #11121A",
"X  c #3A1800",
"o  c #211B17",
"O  c #362513",
"+  c #181C24",
"@  c #112122",
"#  c #1C262A",
"$  c #1F2132",
"%  c #22232C",
"&  c #2B2B2D",
"*  c #24282A",
"=  c #222333",
"-  c #252A34",
";  c #2A2C35",
":  c #2B2C3C",
">  c #24283A",
",  c #33343A",
"<  c #2E3138",
"1  c #451C00",
"2  c #552500",
"3  c #462915",
"4  c #4D330A",
"5  c #682D02",
"6  c #6B3201",
"7  c #663102",
"8  c #733200",
"9  c #783700",
"0  c #702F00",
"q  c #5A3925",
"w  c #5A460F",
"e  c #664D02",
"r  c #725004",
"t  c #796612",
"y  c #534A3B",
"u  c #766A31",
"i  c #70523A",
"p  c #353643",
"a  c #393A47",
"s  c #30354A",
"d  c #3E3E60",
"f  c #423F49",
"g  c #3D434C",
"h  c #3F4145",
"j  c #3D4452",
"k  c #44454C",
"l  c #57534D",
"z  c #4A4C55",
"x  c #454957",
"c  c #4D525A",
"v  c #56575A",
"b  c #524D4A",
"n  c #645C54",
"m  c #665B4A",
"M  c #67635A",
"N  c #786C56",
"B  c #5A5A65",
"V  c #444A66",
"C  c #5E626A",
"Z  c #656869",
"A  c #777779",
"S  c #71706D",
"D  c #675478",
"F  c #813800",
"G  c #894A03",
"H  c #985903",
"J  c #8D5200",
"K  c #A65A01",
"L  c #8A7500",
"P  c #997504",
"I  c #926D0F",
"U  c #A66501",
"Y  c #B87802",
"T  c #AF6D03",
"R  c #927129",
"E  c #B07B23",
"W  c #C47A02",
"Q  c #847758",
"!  c #8D764C",
"~  c #887765",
"^  c #847579",
"/  c #9A8806",
"(  c #A78902",
")  c #B78902",
"_  c #B1940F",
"`  c #938936",
"'  c #A4963A",
"]  c #AF912B",
"[  c #BDA618",
"{  c #C68C02",
"}  c #CC9301",
"|  c #C79501",
" . c #D59901",
".. c #C99A17",
"X. c #CA8E10",
"o. c #CBA605",
"O. c #D4A301",
"+. c #D5A608",
"@. c #D8B602",
"#. c #D7A81A",
"$. c #CDAE16",
"%. c #E5A704",
"&. c #E8B802",
"*. c #E9BB18",
"=. c #C68E2F",
"-. c #D4B230",
";. c #EBB82A",
":. c #DCC312",
">. c #ECCA01",
",. c #F5C803",
"<. c #FAD603",
"1. c #EACC17",
"2. c #FEDD17",
"3. c #FFE407",
"4. c #FEEB1A",
"5. c #D7C731",
"6. c #F9D728",
"7. c #ECCD2D",
"8. c #FEE431",
"9. c #938558",
"0. c #92894B",
"q. c #B89858",
"w. c #AE9451",
"e. c #8B8369",
"r. c #85857A",
"t. c #968B78",
"y. c #9B9679",
"u. c #948A6D",
"i. c #A99869",
"p. c #A69B74",
"a. c #BF9C62",
"s. c #BBA96B",
"d. c #B8A777",
"f. c #BEB279",
"g. c #ADA376",
"h. c #C6A55B",
"j. c #D4B053",
"k. c #C5AA66",
"l. c #C7B566",
"z. c #C4B37A",
"x. c #C9B877",
"c. c #CDB672",
"v. c #CA9845",
"b. c #D2C756",
"n. c #D8C274",
"m. c #E7CC70",
"M. c #575891",
"N. c #787A84",
"B. c #696C8D",
"V. c #6E6FAA",
"C. c #565DA1",
"Z. c #5568E3",
"A. c #8D77A0",
"S. c #D47FDD",
"D. c #7987B5",
"F. c #6FA0EF",
"G. c #938E84",
"H. c #979799",
"J. c #8B8B8C",
"K. c #A4978F",
"L. c #ADA383",
"P. c #ABA589",
"I. c #B6AB87",
"U. c #BBB288",
"Y. c #AAA799",
"T. c #B4AD96",
"R. c #B9B399",
"E. c #999AA5",
"W. c #8893AF",
"Q. c #9EA1A6",
"!. c #A4A4A4",
"~. c #A5A6AA",
"^. c #AAAAAC",
"/. c #ABA9A5",
"(. c #B2ACA4",
"). c #B8B4A5",
"_. c #A3A5B4",
"`. c #ABABB5",
"'. c #AAABBB",
"]. c #A6A9B7",
"[. c #ACB2BA",
"{. c #B5B6BA",
"}. c #A499BD",
"|. c #C6B886",
" X c #C9BD96",
".X c #D2B482",
"XX c #C4BDAB",
"oX c #C198BE",
"OX c #CCC485",
"+X c #D6C688",
"@X c #CDC294",
"#X c #D4C492",
"$X c #DBD399",
"%X c #CBC5AC",
"&X c #ECD282",
"*X c #8E99D3",
"=X c #B3B8C8",
"-X c #9199EC",
";X c #A999FF",
":X c #94B1F6",
">X c #A5A9FC",
",X c #B6A8FF",
"<X c #A9B8FD",
"1X c #B8B7FF",
"2X c #AEB7E4",
"3X c #91A3C0",
"4X c #D094E2",
"5X c #C4BBFF",
"6X c #C5B6FF",
"7X c #D4BBFF",
"8X c #C9B0EA",
"9X c #E6ACF1",
"0X c #B6C7FF",
"qX c #B3CDF4",
"wX c #BBC1C5",
"eX c #C6C9D5",
"rX c #D1D1D1",
"tX c #D7D8E3",
"yX c #C4C4FF",
"uX c #CCCBFF",
"iX c #CAC7FF",
"pX c #D5C3FF",
"aX c #D3CBFF",
"sX c #DBCAFF",
"dX c #C8D7FF",
"fX c #D4D4FF",
"gX c #DCDCFF",
"hX c #D9D6FF",
"jX c #CECDE0",
"kX c #E4DCFF",
"lX c #E6D9FF",
"zX c #F5D4F1",
"xX c #DBE3FF",
"cX c #D9E3FA",
"vX c #DFE3E7",
"bX c #E4E4FF",
"nX c #ECE5FF",
"mX c #E4EAFF",
"MX c #EBEAFF",
"NX c #EAEAF4",
"BX c #F3EDFF",
"VX c #F0E7FF",
"CX c #EDF2FF",
"ZX c #F4F4FF",
"AX c #FAF4FF",
"SX c #FEFDFF",
"DX c #F5F7FB",
"FX c #E7E8E8",
"GX c #E3DFCF",
/* pixels */
"                                                          /.^                                                                 ",
"                                                        Q.zXoX                                                                ",
"                                                      S FXzX4XE.                                                              ",
"                                                      eXSXzX8XqXA                                                             ",
"                                                    B.9XzX8X:XF.3X                                                            ",
"                                                    B 4XS.K.C.Z.D.w 4                                                         ",
"                                                  u u A..X*.o.p.R J 4 u                                                       ",
"                                          ' b.b.b.I ) #.7.8.,.%.W R 5.7.:.1.o.G                                               ",
"                                      ` :.+.P P >.,.) >.4.8.,. .E 6.O.r 4 L <.%.G                                             ",
"                                    u 7.} I P r e >.{ o.4.8.,.W ] ,.G P o.( ..2...q                                           ",
"                                    -.,.U 7.&.} H ,.{ ) *.*.O.U ] <.Y T } 1.E 6.7.R q     L J                                 ",
"                          [ H X   ` 2.&.H #.&.) @.&.U ..-. .{ U H ) @.| o._ R 6.6.;.R q   _  .F                               ",
"                        u 1.Y H L @.@.>.Y 9 L ( ( G U X.{ { { T K 7   r e 3 I 1.] R $.@.@.>.Y 5                               ",
"                          -.<.<.&.H   ( | G O     l N ~ ~ ~ ~ ~ ~ m a % + O _ U 3     @.3.O.8                                 ",
"                            :.<.Y 2     ! i.t.J.T.x.x.Y.^.^.(.@X.XU.H.J.e.Q m , - + . t <.T 1                                 ",
"                            o.,.K O e.i.n.&X(.^.x.p.c.l.!.^.@Xn.K.k.Y./.|.m.l.i.Q b - O @.O.9 X                               ",
"                            :.X.R d.|.T.(.|.|.R.|.U.c.f.^.^.R.c.I.|.R.|.x.f.Y.P.L.d.9.y I >.} 9                               ",
"                    ` /   ) ] i.x.R.^.U.T.^.T.f.s.y.r.N.N.N.N.A e.i.i.g.Y./.(.L.L./.U.g.Q t _ o.) / ( H                       ",
"                  0.$.) ) R k.c.!.(.T.x.n.|.p.S c g , ; ; & & & * , k M t.d.l.j.d.L.Y.Y.c.w.y 4 L ) | { 2                     ",
"                  R +.Y ! s.x.|.Y.~.'.Y.s.N , p k z z k p : ; & & & < p a c 9.k.!.'.~.P.z.d.w.; . e ) J X                     ",
"                    w 9.|.R.E.Q.~.].R.i.l h v C B v Z B.B.D.D.D.D.D.B.B.C c j Z g./._.H.H._.i.n # . o +                       ",
"                    M |.~.'.'.'.[.).u.h B Z z , k N.2X0XdXmXCXCXmXxXdXdXcX[.B g Z f.Q.N.~.=X`.d.N : = = +                     ",
"                    d.T.'.'.'.=XGXT.a Z N.p + % B.>X<X0XxXSXSXSXSXSXSXCXmXxXW.z g y.|.E.].=X'.`.k.n = = $                     ",
"                  N .X!.^.`.`.{.#Xv x N.x + # d -X<XhXZXSXSXSXSXSXSXSXSXxX0X<Xx a v x./.'.'.'.'.T.9.: = =                     ",
"                  g.U.~.^.^.^.@Xp.; & ; : M.C.-XuXZXSXSXSXSXSXZXZXDXSXSXSXmX0XV.V d u.|.].'.'.'.).q.f = =                     ",
"                l x.Y.!.~.^.(.+Xv # # % V.5XfXMXSXSXSXAXZXAXSXAXZXZXDXDXSXSXmX<X:X-XN.c.~.'.'.`.^.h.l = = .                   ",
"                  f.y.J.{.{.%Xd.- + @ s 2XAXSXSXSXSXZXBXBXMXkXbXbXZXAXDXAXSXSXxX>X>XV.s.Y.].^.^.~.k.Q > = +                   ",
"                H.@X(.'.{.^.@Xp.# @ @ j NXSXSXSXSXZXbXaX5X5XiXuXuXuXgXZXSXSXSXSXfX1X*Xp.U._.].~.!.s.n = > > %                 ",
"                H.$X^.'.^.^. Xp.# @ @ B.ZXSXSXSXZX  6X,X1XhXAXSXAXMXyXyXbX  SXSXSXbXtXG.c.{.wX'.^.I.! p p > %                 ",
"                r.+X~.`.^.^. Xp.# @ @ V.hXSXSXBX  6X6XfXBXSXSXSXSXSXMXiX1XiXhXAXSXSXDXG.c.`.=X'.`.).q.a = > +                 ",
"                M +X^.^.^.^. Xp.# @ @ C.iXSXAXsXsXkXZXSXSXSXSX    AXSXAXiX1X1XkXSXSXSX^.|.%XeX=X'.T.q.a = > .                 ",
"                l +X^.^.^.^. Xp.- @ # V.bXSXlXsXZXSXSXSXSX            SXAXaX6X6XBXSXSX{.#XGXvXeX[.T.q.p % - +                 ",
"                e.|.H.E.E.Y.L.Q * * > *XZXSXfXpXBXSXSX                  SXAXBX7XsXSXSX{.P.%XeX{._.!.q.b % % $                 ",
"                z.Y.^.^.^.#Xe.* % % : 2XSXAXfX6XnXSXSX                    SXSXlX7XAXSXtXy.|.'.'.`.^.k.n = = = +               ",
"              z x.Y.^.^.^.#Xe.: a a g tXSXZXaX5XZXSXSX                    SXSXVX7XBXSXtXy.z.~.^.^.^.k.n = ; , ;               ",
"              B OXY.`.^.^.#Xu.z N.J.A FXSXMXyXfXSXSX                        SXnX6XMXSXjXt.z.!.^.^.^.k.M : a c c               ",
"              Z OXY.'.^.^. XS B H.^.J.FXSXgX1XMXSXSX                        SXfX,XMXSXjXt.z.~.^.`.'.z.S a z Z S               ",
"              B OXY._.~.~.K.c C Z C v tXAXuXiXSXSX                          SXpX,XgXSXeXt.f.!.^.].'..XA a k v B               ",
"                g.U.~.~._.E.y.A j : ; ~.SXuXgXSXSX                          SXaX,XiXDXY.s.r.~.`.'.{.z.v ; < p ,               ",
"                9.n.).(.].{.n.M = = % H.SXuXyXMXSXAX                        SXMX1XyXNXG.m.g.R.^.'.XXk.a = = -                 ",
"                9.l.T.).XX Xl.M = > = H.SXhX,XaXSX                          SXAX1XuXNXG.x.R.R.^.XXx.q.a = = =                 ",
"                9.k./.%X+Xf.h.M = k > H.SXMX1XaXSXSXSX                    AXSXZX1XgXDXG.n.{.R.OXz.k.q.a = = =                 ",
"                9.k.Y.Y.U.P.h.M = = = H.SXZX1XlXSXSXSX                    SXSXhX1XZXDXG.c.~.`. XU.d.q.p = = -                 ",
"                w.d._._.Q.P.h.v = = = E.SXZX5XgXSXSXSX                  SXSXbX1XfXSXDXH.z.Y._._.E.L.q.f = = = .               ",
"                k.P.[.).T.I.q.g - > > eXSXSXlX7XBXSXSXSXSX            ZXSXxX<X<XbXSXSXtXL.z._.`.T.P.k.! p = = +               ",
"                l.z.T.|.U.z.q.g - = p tXSXSXBXpXpXlXAXSXSXAX        ZXSXSXgX1XiXZXSXSXtXt.c.). X|.U.j.! : = = +               ",
"                k.p.L.T.R.f.q.b $ $ g eXSXSXSXVXpX7X7XkXSXSXZXZXZXAXSXZXgX0X0XMXSXSXSX2Xr.l.L.P.T.z.a.! > $ = +               ",
"              0.w.0.' ] ' ] ] t 3 3 3 i XXSXSXSXnXlXsX7XsXZXSXSXZXgXuXyXyXuXmXSXSXDXqXJ.0.w.' ' ' ' ] R w O O 1 1             ",
"            w ..+.O.O.O.O.O.O.} G 8 8 0 t.SXSXSXSXZXBXnXsXaXhXfXyXyXuXbXmXmXSXSXDX0X*X] +.+.O.+.+.O.O.O.U 7 7 6 2             ",
"              w.#.} v.#. .=.j.#.J 0 8 5 }.kXZXSXSXSXZXAXAXnXlXgXbXZXSXAXCXSXSXSXxX0X:X~ -.#.=.j.#.=.j.-.Y 6 7 6 X             ",
"              -.3.,.7.3.,.*.3.<.U 8 9 6 A.6XiXnXSXSXSXZXZXZXAXAXSXSXSXDXSXSXSXSXCXdX:X9.8.8.;.2.2.;.6.3.O.6 7 6 1             ",
"              $.<.&.&.<.,.%.<.,.H 6 9 6 V.,X,X,XfXAXSXSXZXMXmXxXmXCXAXSXSXSXSXCXdX<X:X` <.<.%.<.<.%.,.<. .8 7 6 1             ",
"              ] ..X.{ | { { | { J 6 8 6 D   ;X;X,XuXZXSXSXSXAXDXAXSXSXSXSXCXdX0X:X    ! ....{ { | { { | T 9 6 6 1             ",
"                                                                                                                              ",
"                                                                                                                              ",
"                                                                                                                              ",
"                                                                                                                              ",
"                                                                                                                              ",
"                                                                                                                              ",
"                                                                                                                              ",
"                                                                                                                              ",
"                                                                                                                              ",
"                                                                                                                              ",
"                                                                                                                              "
};
