/* XPM */
static char * player_xpm[] = {
"32 32 570 2",
"  	c None",
". 	c #9086CD",
"+ 	c #9C94D5",
"@ 	c #AAA8DF",
"# 	c #A9A7DC",
"$ 	c #978FCF",
"% 	c #7768B6",
"& 	c #6F5FB0",
"* 	c #6659A7",
"= 	c #6C60AE",
"- 	c #948CC6",
"; 	c #AEAAD7",
"> 	c #AAA5D4",
", 	c #7D70BB",
"' 	c #AAA6E1",
") 	c #BEBDED",
"! 	c #D3D2F8",
"~ 	c #D6D6FB",
"{ 	c #D0D0F6",
"] 	c #BFBFF0",
"^ 	c #B4B2E9",
"/ 	c #A39CDC",
"( 	c #9A94D4",
"_ 	c #A19BDC",
": 	c #B0A9E5",
"< 	c #C0BEEC",
"[ 	c #B7B6E3",
"} 	c #8E8BBF",
"| 	c #8C85C5",
"1 	c #8075BA",
"2 	c #998DD7",
"3 	c #B7B5EC",
"4 	c #C2BEEE",
"5 	c #CECAF3",
"6 	c #D2D0F6",
"7 	c #D9D9FD",
"8 	c #DBDBFD",
"9 	c #D4D4F8",
"0 	c #CFCFF5",
"a 	c #C4C4F1",
"b 	c #BFBFEF",
"c 	c #BCBCEE",
"d 	c #BDBDEE",
"e 	c #C1C1ED",
"f 	c #BBBBE3",
"g 	c #938EC4",
"h 	c #B6B3E4",
"i 	c #D2D2F8",
"j 	c #D1D1F7",
"k 	c #BEBCEC",
"l 	c #BAB4EA",
"m 	c #E0DDF8",
"n 	c #E6E3FC",
"o 	c #F4EEFE",
"p 	c #DBDBF8",
"q 	c #E3E3FD",
"r 	c #E3E3FB",
"s 	c #DADAF7",
"t 	c #DCDCFD",
"u 	c #D9D9FC",
"v 	c #C5C5F2",
"w 	c #C3C3F0",
"x 	c #BDBDEF",
"y 	c #B9B7EB",
"z 	c #B8B4DE",
"A 	c #9892B5",
"B 	c #8579C4",
"C 	c #C3C1ED",
"D 	c #E3E2FE",
"E 	c #E8E8FF",
"F 	c #E7E7FF",
"G 	c #DEDCF8",
"H 	c #C4BFF0",
"I 	c #C3BDEB",
"J 	c #B7AFE9",
"K 	c #E6E4FD",
"L 	c #E9E9FA",
"M 	c #EDEDFB",
"N 	c #F1F1FF",
"O 	c #E5E5FA",
"P 	c #D7D7F5",
"Q 	c #E3E3FE",
"R 	c #E2E2FF",
"S 	c #CACAF3",
"T 	c #C2C2EF",
"U 	c #CDCDED",
"V 	c #CAC5EA",
"W 	c #B4A6D0",
"X 	c #B6A4C3",
"Y 	c #AC9FA5",
"Z 	c #B1A18F",
"` 	c #AAA4DA",
" .	c #E7E2FD",
"..	c #F2EDFF",
"+.	c #ECECFF",
"@.	c #E9E8F9",
"#.	c #CAC7EB",
"$.	c #D8D8F0",
"%.	c #DAD1E7",
"&.	c #C2BBE6",
"*.	c #C8C4F2",
"=.	c #FAFAFE",
"-.	c #E6E6F6",
";.	c #F9F9FF",
">.	c #EEEEFF",
",.	c #E0E0F7",
"'.	c #D9D9F4",
").	c #ECECFC",
"!.	c #E3E3F4",
"~.	c #DBDBEE",
"{.	c #CECDED",
"].	c #CEC2E3",
"^.	c #CDC4DE",
"/.	c #D0C1D4",
"(.	c #CBB9C1",
"_.	c #BAA89D",
":.	c #98816E",
"<.	c #D0CEEE",
"[.	c #F5F2FF",
"}.	c #EBEAFB",
"|.	c #F3F1FC",
"1.	c #E5DFF5",
"2.	c #EAE8E9",
"3.	c #FEF8E8",
"4.	c #FDEEDE",
"5.	c #CFC4E6",
"6.	c #C7C1F1",
"7.	c #FBF8FF",
"8.	c #E7E7F8",
"9.	c #F7F7FC",
"0.	c #EFEEFB",
"a.	c #F4EAFB",
"b.	c #E8DCEF",
"c.	c #E7E2ED",
"d.	c #F3F2F6",
"e.	c #E8E7F0",
"f.	c #E0DBE9",
"g.	c #DED3E2",
"h.	c #D0C2D3",
"i.	c #CABABC",
"j.	c #C9B6A5",
"k.	c #CCBDA4",
"l.	c #CCBB9A",
"m.	c #A89572",
"n.	c #AEA9DA",
"o.	c #E1DEF2",
"p.	c #EDEAFA",
"q.	c #EDEAF6",
"r.	c #FDFCFE",
"s.	c #EEECF4",
"t.	c #EEEBE5",
"u.	c #FFF3E2",
"v.	c #FEEEDD",
"w.	c #DCCCDE",
"x.	c #CCC1E9",
"y.	c #F1EBFD",
"z.	c #F3F3FD",
"A.	c #E7E5F5",
"B.	c #F8F4FB",
"C.	c #F7E9F6",
"D.	c #F6EBEB",
"E.	c #E9E6DA",
"F.	c #E9E0D9",
"G.	c #F8F4F3",
"H.	c #F2E7E8",
"I.	c #E8D8D4",
"J.	c #E6D6D3",
"K.	c #D6C5B9",
"L.	c #CDB095",
"M.	c #C1A57C",
"N.	c #BEA06E",
"O.	c #AD9766",
"P.	c #CDC7E9",
"Q.	c #E1DCF0",
"R.	c #F1F0F5",
"S.	c #F2EDF4",
"T.	c #FEFDFE",
"U.	c #F4F1F4",
"V.	c #EFE0D9",
"W.	c #FFEEDD",
"X.	c #F0DFDE",
"Y.	c #DECEE1",
"Z.	c #D2CAF1",
"`.	c #F7F5FF",
" +	c #EDEDFA",
".+	c #DBD6EB",
"++	c #E3DAE8",
"@+	c #EDDFE1",
"#+	c #EAE3D8",
"$+	c #E2DECD",
"%+	c #E3D6C2",
"&+	c #EEEBDD",
"*+	c #F2EFE4",
"=+	c #E9DFCC",
"-+	c #DCC9A8",
";+	c #D1BC90",
">+	c #CDBA87",
",+	c #C2AC77",
"'+	c #947644",
")+	c #BEB6E4",
"!+	c #EDECF8",
"~+	c #EAE2EA",
"{+	c #F8F0EF",
"]+	c #FBF8F5",
"^+	c #FBFAFA",
"/+	c #EDE4E1",
"(+	c #F4E1D1",
"_+	c #FEEDDB",
":+	c #FDECDD",
"<+	c #E4D7E4",
"[+	c #DBCDDF",
"}+	c #D5D0F0",
"|+	c #F2F2FE",
"1+	c #E4E2F4",
"2+	c #D7CEE6",
"3+	c #D5C8DF",
"4+	c #DCCCDA",
"5+	c #E7E1E6",
"6+	c #EBE7E2",
"7+	c #E3D7C2",
"8+	c #DDD0AF",
"9+	c #DBCEAD",
"0+	c #DBCDB0",
"a+	c #C9B07F",
"b+	c #C6AD76",
"c+	c #AA8E61",
"d+	c #A290CB",
"e+	c #E2DEEE",
"f+	c #E0D8E0",
"g+	c #EEE9E5",
"h+	c #EDE9E5",
"i+	c #EEE7DB",
"j+	c #EAE1CC",
"k+	c #E5D4C2",
"l+	c #F9E7D1",
"m+	c #FFEDDB",
"n+	c #FAE9DD",
"o+	c #EADBDD",
"p+	c #ECD5CF",
"q+	c #D1C2DE",
"r+	c #D3CEEB",
"s+	c #CECBEB",
"t+	c #C7BEE2",
"u+	c #CEC7E9",
"v+	c #D4CBE2",
"w+	c #D4CAD6",
"x+	c #E0D3D2",
"y+	c #D7C2AA",
"z+	c #D2BE98",
"A+	c #CCB985",
"B+	c #C6B27F",
"C+	c #BBA47E",
"D+	c #B7A693",
"E+	c #BDB1D6",
"F+	c #DED8E5",
"G+	c #D6C7C0",
"H+	c #DCCBBF",
"I+	c #CEC2AF",
"J+	c #BFAB89",
"K+	c #A7896E",
"L+	c #DEB68A",
"M+	c #FDDCAF",
"N+	c #FFE0B7",
"O+	c #F4CE9F",
"P+	c #DBAF81",
"Q+	c #AB8463",
"R+	c #866C6D",
"S+	c #9D99AE",
"T+	c #B7A0B3",
"U+	c #C5A1A4",
"V+	c #C7ABBB",
"W+	c #B7A5BD",
"X+	c #BCADB8",
"Y+	c #C3AE9C",
"Z+	c #D7BD9E",
"`+	c #DFC7AC",
" @	c #C7AF93",
".@	c #A99084",
"+@	c #7E6E7F",
"@@	c #BCA9B9",
"#@	c #C3AD9F",
"$@	c #95785C",
"%@	c #938A85",
"&@	c #7B6642",
"*@	c #837640",
"=@	c #A37849",
"-@	c #F9CB90",
";@	c #FEDAA7",
">@	c #E2B37E",
",@	c #8F6846",
"'@	c #694E2C",
")@	c #8D7E42",
"!@	c #6E4934",
"~@	c #9B9491",
"{@	c #A8A099",
"]@	c #C59C70",
"^@	c #DDB394",
"/@	c #A995B4",
"(@	c #AC9A97",
"_@	c #BC8C5C",
":@	c #ECC49F",
"<@	c #D6C5B5",
"[@	c #695677",
"}@	c #6B5B86",
"|@	c #857975",
"1@	c #D5C6B3",
"2@	c #927F6E",
"3@	c #DDCEC6",
"4@	c #CDB66C",
"5@	c #C1AE60",
"6@	c #A3896B",
"7@	c #FCE1BB",
"8@	c #FFE5C1",
"9@	c #F6D7AF",
"0@	c #947A5E",
"a@	c #AC9852",
"b@	c #D4C461",
"c@	c #98734B",
"d@	c #DCD4D0",
"e@	c #E7E6E6",
"f@	c #AF9780",
"g@	c #E7C29E",
"h@	c #B196AC",
"i@	c #C6B5A8",
"j@	c #EAC2A3",
"k@	c #F6DBBE",
"l@	c #AEA191",
"m@	c #483663",
"n@	c #B3A79A",
"o@	c #AFA196",
"p@	c #EAC3C2",
"q@	c #EAB9A3",
"r@	c #B99480",
"s@	c #DBCBBC",
"t@	c #FEEDDC",
"u@	c #FFEDDC",
"v@	c #F2E1CD",
"w@	c #BAA495",
"x@	c #D5A58B",
"y@	c #F0C8B4",
"z@	c #FBE4E3",
"A@	c #F0C0C3",
"B@	c #F4BDA9",
"C@	c #F9C99E",
"D@	c #E3B68C",
"E@	c #F6C9A0",
"F@	c #EDC296",
"G@	c #CB986A",
"H@	c #D498A0",
"I@	c #FCCDC7",
"J@	c #FDE0D3",
"K@	c #FFE5D4",
"L@	c #FBB3A4",
"M@	c #FBD6C6",
"N@	c #FEE8D6",
"O@	c #FDD5CA",
"P@	c #FFBFBD",
"Q@	c #FFAEBB",
"R@	c #FDAAB9",
"S@	c #EFA4AA",
"T@	c #BE8A75",
"U@	c #977445",
"V@	c #AC6925",
"W@	c #BD9D85",
"X@	c #DDC0A1",
"Y@	c #F6DCBA",
"Z@	c #FEDEBE",
"`@	c #FDC9A8",
" #	c #FDD4B4",
".#	c #FEDDB4",
"+#	c #FDD6A2",
"@#	c #F4C693",
"##	c #F2BB8F",
"$#	c #D59D82",
"%#	c #B17E73",
"&#	c #7F615A",
"*#	c #A48A88",
"=#	c #A6876C",
"-#	c #B89556",
";#	c #B38F53",
">#	c #9F8074",
",#	c #5067A0",
"'#	c #384B75",
")#	c #29658B",
"!#	c #13399B",
"~#	c #3486D9",
"{#	c #706785",
"]#	c #A3803A",
"^#	c #9C7938",
"/#	c #6677A1",
"(#	c #3992ED",
"_#	c #1E75C3",
":#	c #1BADE9",
"<#	c #0D8DC6",
"[#	c #3C85A1",
"}#	c #5B9FD2",
"|#	c #2F81BC",
"1#	c #797A84",
"2#	c #7A9FAC",
"3#	c #2479BF",
"4#	c #2D86CE",
"5#	c #4EBBDE",
"6#	c #6DE2F9",
"7#	c #43CAF2",
"8#	c #2489B2",
"9#	c #9DD3D8",
"0#	c #A8DCE7",
"a#	c #71C2D6",
"b#	c #A1D5EE",
"c#	c #A6D9F4",
"d#	c #4BC7F0",
"e#	c #61A9DF",
"f#	c #72BBE0",
"g#	c #A2D9EA",
"h#	c #B0E6F3",
"i#	c #A7E3F5",
"j#	c #84B2D1",
"k#	c #838E9E",
"l#	c #85C1D9",
"m#	c #5698CE",
"n#	c #9ADADB",
"o#	c #B4E2D4",
"p#	c #AED6D3",
"q#	c #ACD8D2",
"r#	c #9FD5CF",
"s#	c #B4C4AF",
"t#	c #4B849C",
"u#	c #86C5D5",
"v#	c #82BFD5",
"w#	c #94C3D8",
"x#	c #87929F",
"y#	c #9DC5DC",
"z#	c #A8DBEA",
"A#	c #519DC0",
"B#	c #55DBF1",
"C#	c #A5DFD8",
"D#	c #63AED3",
"E#	c #4CD1EF",
"F#	c #4CD5ED",
"G#	c #90BCB5",
"H#	c #84B2B4",
"I#	c #BAD7E1",
"J#	c #BADCE7",
"K#	c #94D2DF",
"L#	c #82C9D6",
"M#	c #518188",
"N#	c #868787",
"O#	c #CECDC5",
"P#	c #B0BDAC",
"Q#	c #8C8B81",
"R#	c #70ADC9",
"S#	c #479CD9",
"T#	c #2875D6",
"U#	c #318DCD",
"V#	c #349BD2",
"W#	c #327BAC",
"X#	c #AE9A81",
"Y#	c #D3C2AE",
"Z#	c #CBC0B5",
"`#	c #BBCECA",
" $	c #97CDCD",
".$	c #6C9897",
"+$	c #88ABA6",
"@$	c #D7C9A5",
"#$	c #F7D699",
"$$	c #E2A969",
"%$	c #667EB6",
"&$	c #3F8EEF",
"*$	c #2B79AA",
"=$	c #3390C7",
"-$	c #3670CC",
";$	c #B49B8F",
">$	c #C7A481",
",$	c #FACE95",
"'$	c #FCD294",
")$	c #EFB879",
"!$	c #C98B50",
"~$	c #A7BCB9",
"{$	c #A4A7A7",
"]$	c #656565",
"^$	c #CADCDC",
"/$	c #93DEE0",
"($	c #65BEC5",
"_$	c #5BABB2",
":$	c #3483C5",
"<$	c #3491F4",
"[$	c #318CB9",
"}$	c #369BB0",
"|$	c #358BE4",
"1$	c #728FCC",
"2$	c #827A68",
"3$	c #B2A485",
"4$	c #B89F7A",
"5$	c #B1987F",
"6$	c #85D6DB",
"7$	c #ACFCFD",
"8$	c #D3EAEA",
"9$	c #7F8080",
"0$	c #9B9B9B",
"a$	c #E5FCFC",
"b$	c #C4FFFF",
"c$	c #ABFAFF",
"d$	c #A7F2F7",
"e$	c #72A6C0",
"f$	c #338DEE",
"g$	c #2D81DC",
"h$	c #0D3654",
"i$	c #2B72B0",
"j$	c #3490F4",
"k$	c #478EC9",
"l$	c #9BDFE5",
"m$	c #A8F7FB",
"n$	c #AAF8FC",
"o$	c #B9FEFF",
"p$	c #D0FFFF",
"q$	c #E8FEFE",
"r$	c #BCBEBE",
"s$	c #E1E1E1",
"t$	c #F9FFFF",
"u$	c #ECFFFF",
"v$	c #E9FCFC",
"w$	c #C1CECE",
"x$	c #577086",
"y$	c #3690EC",
"z$	c #3794F3",
"A$	c #154E9A",
"B$	c #1D4C76",
"C$	c #358DE4",
"D$	c #3995F1",
"E$	c #8A9EBF",
"F$	c #DFF0F0",
"G$	c #E9FDFD",
"H$	c #EBFFFF",
"I$	c #F0FFFF",
"J$	c #FDFFFF",
"K$	c #EFEFEF",
"L$	c #595959",
"M$	c #E9E9E9",
"N$	c #F2F2F2",
"O$	c #D3D3D3",
"P$	c #A9AAAA",
"Q$	c #5F5F5F",
"R$	c #20457D",
"S$	c #4B73B0",
"T$	c #647BB1",
"U$	c #354978",
"V$	c #606164",
"W$	c #2B649F",
"X$	c #2B69AF",
"Y$	c #4A5082",
"Z$	c #5E5650",
"`$	c #B2B3B3",
" %	c #D4D5D5",
".%	c #FDFDFD",
"+%	c #F6F6F6",
"@%	c #909090",
"#%	c #C2C2C2",
"$%	c #8A8A8A",
"%%	c #343434",
"&%	c #363636",
"*%	c #2A2A2A",
"=%	c #232323",
"-%	c #60523D",
";%	c #87673C",
">%	c #332F2C",
",%	c #242424",
"'%	c #644011",
")%	c #8C8C8C",
"!%	c #CECECE",
"~%	c #CBCBCB",
"                                                                ",
"                    . + @ # $ % & * = - ; >                     ",
"                , ' ) ! ~ { ] ^ / ( _ : < [ }                   ",
"            | 1 2 3 4 5 6 7 8 9 0 a b c c d e f g               ",
"          h i j k l m n o p q r s t u j v c w x y z A           ",
"      B C D E F G H I J K L M N O P Q R t S T U V W X Y Z       ",
"      `  ...+.@.#.$.%.&.*.=.-.;.>.,.'.).!.~.{.].^./.(._.:.      ",
"      <.[.}.|.1.2.3.4.5.6.7.8.9.0.a.b.c.d.e.f.g.h.i.j.k.l.m.    ",
"    n.o.p.q.r.s.t.u.v.w.x.y.z.A.B.C.D.E.F.G.H.I.J.K.L.M.N.O.    ",
"    P.Q.R.S.T.U.V.v.W.X.Y.Z.`. +.+++@+#+$+%+&+*+=+-+;+>+,+'+    ",
"    )+!+~+{+]+^+/+(+_+:+<+[+}+|+1+2+3+4+5+6+7+8+9+0+a+b+c+      ",
"    d+e+f+g+h+i+j+k+l+m+n+o+p+q+r+s+t+u+v+w+x+y+z+A+B+C+D+      ",
"      E+F+G+H+I+J+K+L+M+N+O+P+Q+R+S+T+U+V+W+X+Y+Z+`+ @.@+@      ",
"        @@#@$@%@&@*@=@-@;@>@,@'@)@!@~@{@]@^@/@(@_@:@<@[@}@      ",
"        |@1@2@3@4@5@6@7@8@9@0@a@b@c@d@e@f@g@h@i@j@k@l@m@        ",
"          n@o@p@q@r@s@t@m+u@v@w@x@y@z@A@B@C@D@E@F@G@            ",
"              H@I@J@u@K@L@M@u@N@O@P@Q@R@S@T@U@V@                ",
"                W@X@Y@Z@`@ #.#+#@###$#%#                        ",
"                    &#*#=#-#;#>#,#'#)#                          ",
"                    !#~#{#]#^#/#(#_#:#<#                        ",
"                    [#}#|#1#2#3#4#5#6#7#8#                      ",
"                    9#0#a#b#c#d#e#f#g#h#i#j#                    ",
"                  k#l#m#n#o#p#q#r#s#t#u#v#w#x#                  ",
"                  y#z#A#B#C#D#E#F#G#H#I#J#K#L#M#                ",
"                N#O#P#Q#R#S#T#U#V#W#X#Y#Z#`# $.$                ",
"                +$@$#$$$%$&$*$=$-$;$>$,$'$)$!$~${$              ",
"              ]$^$/$($_$:$<$[$}$|$1$2$3$4$5$6$7$8$9$            ",
"              0$a$b$c$d$e$f$g$h$i$j$k$l$m$n$o$p$q$r$            ",
"              s$t$u$v$w$x$y$z$A$B$C$D$E$F$G$H$I$J$K$            ",
"            L$M$N$O$P$Q$R$S$T$U$V$W$X$Y$Z$`$ %N$.%+%@%          ",
"              #%$%%%&%*%=%-%;%>%&%,%=%'%      )%!%~%            ",
"                                                                "};
