/* XPM */
static char * wall_xpm[] = {
"32 32 643 2",
"  	c None",
". 	c #5F6060",
"+ 	c #616262",
"@ 	c #5F5F5F",
"# 	c #5D5E5E",
"$ 	c #7E7B7B",
"% 	c #D8CFCF",
"& 	c #E5DADA",
"* 	c #E4DADA",
"= 	c #E2DADA",
"- 	c #E1DADA",
"; 	c #E2DBDB",
"> 	c #D8D1D1",
", 	c #7C7979",
"' 	c #3B3C3C",
") 	c #4D4D4D",
"! 	c #757373",
"~ 	c #CFCACA",
"{ 	c #E1CECE",
"] 	c #FAA8A8",
"^ 	c #FF9E9E",
"/ 	c #FC9E9E",
"( 	c #ED9E9E",
"_ 	c #EA9E9E",
": 	c #EEA3A3",
"< 	c #F8BDBD",
"[ 	c #D7C8C8",
"} 	c #939292",
"| 	c #545454",
"1 	c #767676",
"2 	c #7B7A7A",
"3 	c #C6C3C3",
"4 	c #D9C9C9",
"5 	c #F9AEAE",
"6 	c #FFAEAE",
"7 	c #FFC8C8",
"8 	c #FFCDCD",
"9 	c #FDCDCD",
"0 	c #F5CDCD",
"a 	c #F3CDCD",
"b 	c #F4D0D0",
"c 	c #FAD1D1",
"d 	c #EDBABA",
"e 	c #D8CCCC",
"f 	c #909090",
"g 	c #5E5E5E",
"h 	c #787878",
"i 	c #BBBABA",
"j 	c #D0C2C2",
"k 	c #F7B5B5",
"l 	c #FEB5B5",
"m 	c #FFC2C2",
"n 	c #FFC1C1",
"o 	c #FFB4B4",
"p 	c #FFB1B1",
"q 	c #FFB0B0",
"r 	c #FDB0B0",
"s 	c #F7B0B0",
"t 	c #F6B0B0",
"u 	c #F4B0B0",
"v 	c #EEB0B0",
"w 	c #EDB1B1",
"x 	c #EDB4B4",
"y 	c #F0BFBF",
"z 	c #EBBBBB",
"A 	c #D3C9C9",
"B 	c #868686",
"C 	c #3B3B3B",
"D 	c #767777",
"E 	c #BCB0B0",
"F 	c #F6BDBD",
"G 	c #FEBDBD",
"H 	c #FFBABA",
"I 	c #FFBDBD",
"J 	c #FF5151",
"K 	c #FF1818",
"L 	c #FE1818",
"M 	c #F71818",
"N 	c #EF1818",
"O 	c #ED1818",
"P 	c #E61818",
"Q 	c #DF1818",
"R 	c #DD1818",
"S 	c #E36F6F",
"T 	c #F5D9D9",
"U 	c #E99797",
"V 	c #EEE0E0",
"W 	c #A4A5A5",
"X 	c #3D3D3D",
"Y 	c #B2AAAA",
"Z 	c #EAC0C0",
"` 	c #FDB2B2",
" .	c #FFB3B3",
"..	c #FFC5C5",
"+.	c #FFBBBB",
"@.	c #FF5A5A",
"#.	c #FF2323",
"$.	c #FF0A0A",
"%.	c #FE0000",
"&.	c #FA0000",
"*.	c #F70000",
"=.	c #F00000",
"-.	c #ED0000",
";.	c #E70000",
">.	c #DF0000",
",.	c #DD0000",
"'.	c #E05454",
").	c #EEB7B7",
"!.	c #EEB6B6",
"~.	c #ECC7C7",
"{.	c #C6BFBF",
"].	c #6B6C6C",
"^.	c #6E7070",
"/.	c #E5D7D7",
"(.	c #E89898",
"_.	c #FAE5E5",
":.	c #FFCBCB",
"<.	c #FF6363",
"[.	c #FF3333",
"}.	c #FF1212",
"|.	c #FF0000",
"1.	c #F90000",
"2.	c #EF0000",
"3.	c #E80000",
"4.	c #DD0D0D",
"5.	c #E37474",
"6.	c #F5D8D8",
"7.	c #E99999",
"8.	c #EADCDC",
"9.	c #8E8F8F",
"0.	c #2A2A2A",
"a.	c #9F9A9A",
"b.	c #E8CACA",
"c.	c #EDACAC",
"d.	c #FBC6C6",
"e.	c #FF6E6E",
"f.	c #FF1515",
"g.	c #EE0000",
"h.	c #E90000",
"i.	c #DC0000",
"j.	c #DD5E5E",
"k.	c #EBC4C4",
"l.	c #EAACAC",
"m.	c #E6CECE",
"n.	c #ADA9A9",
"o.	c #575858",
"p.	c #6D6E6E",
"q.	c #E1D3D3",
"r.	c #E89E9E",
"s.	c #F8D5D5",
"t.	c #FF7D7D",
"u.	c #FF1D1D",
"v.	c #FF0101",
"w.	c #FE0101",
"x.	c #FC0101",
"y.	c #FA0101",
"z.	c #F10101",
"A.	c #EE0101",
"B.	c #E90101",
"C.	c #E00101",
"D.	c #DD0101",
"E.	c #DC0101",
"F.	c #DA0101",
"G.	c #D80101",
"H.	c #CD1E1E",
"I.	c #CE7D7D",
"J.	c #EDD4D4",
"K.	c #D69F9F",
"L.	c #E2D8D8",
"M.	c #2E2E2E",
"N.	c #8E8A8A",
"O.	c #E8D1D1",
"P.	c #EBA2A2",
"Q.	c #FBD0D0",
"R.	c #FF7F7C",
"S.	c #FF6968",
"T.	c #FF6969",
"U.	c #FD5656",
"V.	c #F56363",
"W.	c #F36B6B",
"X.	c #F16D6D",
"Y.	c #F06565",
"Z.	c #ED3E3D",
"`.	c #E66565",
" +	c #E36D6D",
".+	c #E26464",
"++	c #DD2929",
"@+	c #DC2828",
"#+	c #E06363",
"$+	c #D96D6D",
"%+	c #D76D6D",
"&+	c #D16363",
"*+	c #CB7474",
"=+	c #EDD9D9",
"-+	c #D39696",
";+	c #EAE0E0",
">+	c #A4A4A4",
",+	c #515151",
"'+	c #6A6C6C",
")+	c #DACDCD",
"!+	c #E9A5A5",
"~+	c #F7CFCF",
"{+	c #FE9E9B",
"]+	c #FFBDB3",
"^+	c #FED8D7",
"/+	c #FFD6D6",
"(+	c #FEBBBA",
"_+	c #FBCECD",
":+	c #FCE4E4",
"<+	c #FBDFDF",
"[+	c #F9D0CF",
"}+	c #F39996",
"|+	c #F7D1D1",
"1+	c #F7DFDF",
"2+	c #F5D7D7",
"3+	c #E06666",
"4+	c #DC7171",
"5+	c #F4D9D9",
"6+	c #F5DFDF",
"7+	c #F4DFDF",
"8+	c #EED6D6",
"9+	c #D19090",
"0+	c #E9DFDF",
"a+	c #AAAAAA",
"b+	c #838383",
"c+	c #7F7E7E",
"d+	c #E8D6D6",
"e+	c #EA9C9C",
"f+	c #FAD6D6",
"g+	c #FF9F99",
"h+	c #FDD9D6",
"i+	c #F7A9A9",
"j+	c #FD9B98",
"k+	c #FDBDB3",
"l+	c #F7ABA9",
"m+	c #FBE4E4",
"n+	c #F4A7A6",
"o+	c #F4A7A4",
"p+	c #FACDCB",
"q+	c #F9ABAB",
"r+	c #EDA7A7",
"s+	c #F7E0E0",
"t+	c #E68787",
"u+	c #F2B8B8",
"v+	c #F1A9A9",
"w+	c #EBA6A5",
"x+	c #F3DFDF",
"y+	c #D39797",
"z+	c #E6DCDC",
"A+	c #959696",
"B+	c #848484",
"C+	c #747575",
"D+	c #CEC3C3",
"E+	c #E8AFAF",
"F+	c #F5C8C8",
"G+	c #FD9C9B",
"H+	c #FE8883",
"I+	c #FEE6E6",
"J+	c #FBD1D1",
"K+	c #FD7B79",
"L+	c #F6786F",
"M+	c #FA9492",
"N+	c #FADCDC",
"O+	c #EB8887",
"P+	c #F6B7B6",
"Q+	c #F1A09D",
"R+	c #DF5251",
"S+	c #DC7070",
"T+	c #F4D9D8",
"U+	c #E99695",
"V+	c #F7D5D5",
"W+	c #E9A4A4",
"X+	c #D84848",
"Y+	c #DB7676",
"Z+	c #F0D8D8",
"`+	c #D49A9A",
" @	c #ECD6D6",
".@	c #D49797",
"+@	c #E5DBDB",
"@@	c #868787",
"#@	c #626262",
"$@	c #2B2B2B",
"%@	c #757575",
"&@	c #E8D8D8",
"*@	c #E99898",
"=@	c #F9D9D9",
"-@	c #F77373",
";@	c #F54E4C",
">@	c #F6AEAE",
",@	c #FDEDED",
"'@	c #FCC2C2",
")@	c #F37676",
"!@	c #FDCECE",
"~@	c #FBDEDE",
"{@	c #EF9694",
"]@	c #F6D6D5",
"^@	c #DE6F6D",
"/@	c #D43333",
"(@	c #EB8F8C",
"_@	c #F9CEC7",
":@	c #EFA4A2",
"<@	c #F6DDDD",
"[@	c #D97575",
"}@	c #CC5D5D",
"|@	c #E6BABA",
"1@	c #EABAB8",
"2@	c #E6C5C4",
"3@	c #DCA6A6",
"4@	c #E09797",
"5@	c #E1D5D5",
"6@	c #7F8080",
"7@	c #4C4C4C",
"8@	c #1E1E1E",
"9@	c #C0B6B6",
"0@	c #E8B9B9",
"a@	c #F1BEBE",
"b@	c #F5B9B9",
"c@	c #F7BBBB",
"d@	c #F69696",
"e@	c #F27C7C",
"f@	c #FDE5E5",
"g@	c #FEC4C3",
"h@	c #FA8B88",
"i@	c #FBE3E2",
"j@	c #F0B0B0",
"k@	c #F18987",
"l@	c #F6DBDB",
"m@	c #D97878",
"n@	c #E98A8A",
"o@	c #F9C5C4",
"p@	c #F2B0A8",
"q@	c #F7D1D0",
"r@	c #FBF0F0",
"s@	c #ECCCCC",
"t@	c #E5C2C2",
"u@	c #E7B7B7",
"v@	c #DA8E8B",
"w@	c #EFDAD9",
"x@	c #D08686",
"y@	c #DFB6B6",
"z@	c #B3ACAC",
"A@	c #676767",
"B@	c #1C1C1C",
"C@	c #6C6D6D",
"D@	c #E8D9D9",
"E@	c #F7D9D9",
"F@	c #F48888",
"G@	c #FCC1C1",
"H@	c #FEDBDB",
"I@	c #F9C5C5",
"J@	c #FDD0D0",
"K@	c #F88887",
"L@	c #F98481",
"M@	c #F9DCDB",
"N@	c #E47070",
"O@	c #E97676",
"P@	c #F8E4E4",
"Q@	c #EEC9C9",
"R@	c #F9CFCF",
"S@	c #F0B9B8",
"T@	c #E58988",
"U@	c #F7E5E5",
"V@	c #EDCDCD",
"W@	c #E9C2C2",
"X@	c #E5B6B6",
"Y@	c #D58282",
"Z@	c #DCADAD",
"`@	c #E0B5B5",
" #	c #DB9393",
".#	c #DBD0D0",
"+#	c #7E7F7F",
"@#	c #212121",
"##	c #E9DADA",
"$#	c #E99696",
"%#	c #F8D9D9",
"&#	c #F37171",
"*#	c #F76D6D",
"=#	c #F9C1C1",
"-#	c #F9C6C6",
";#	c #F69797",
">#	c #EA4242",
",#	c #E56666",
"'#	c #E8B1B1",
")#	c #DA5757",
"!#	c #DA5B5B",
"~#	c #EABFBF",
"{#	c #EABEBE",
"]#	c #DE7271",
"^#	c #ECADAD",
"/#	c #F5D5D5",
"(#	c #D16D6D",
"_#	c #C62E2E",
":#	c #C52B29",
"<#	c #C96F6F",
"[#	c #D08585",
"}#	c #E2AEAE",
"|#	c #C6BEBE",
"1#	c #777878",
"2#	c #444444",
"3#	c #202020",
"4#	c #646666",
"5#	c #CFC3C3",
"6#	c #F3C8C8",
"7#	c #F29A9A",
"8#	c #EB4242",
"9#	c #E93939",
"0#	c #E93B3B",
"a#	c #E42A2A",
"b#	c #D90C0C",
"c#	c #CF1A1A",
"d#	c #CE3333",
"e#	c #CD1515",
"f#	c #CD1616",
"g#	c #CE3838",
"h#	c #CE3E3E",
"i#	c #CF3737",
"j#	c #D65D5C",
"k#	c #EBC0C0",
"l#	c #E7AAAA",
"m#	c #C44747",
"n#	c #BB0000",
"o#	c #BF3C3C",
"p#	c #D89191",
"q#	c #DDCFCF",
"r#	c #969696",
"s#	c #6E6E6E",
"t#	c #323232",
"u#	c #7E7D7D",
"v#	c #E8D5D5",
"w#	c #E99C9C",
"x#	c #F5D4D4",
"y#	c #E46A6A",
"z#	c #DE0000",
"A#	c #D90000",
"B#	c #D00000",
"C#	c #CD0000",
"D#	c #CC0000",
"E#	c #CD0401",
"F#	c #D2251F",
"G#	c #CC4646",
"H#	c #C13A3A",
"I#	c #BC1313",
"J#	c #BA0202",
"K#	c #C66A6A",
"L#	c #EBD5D5",
"M#	c #D28787",
"N#	c #E3A6A6",
"O#	c #D5CBCB",
"P#	c #909191",
"Q#	c #656565",
"R#	c #333333",
"S#	c #ED9D9D",
"T#	c #E26D6D",
"U#	c #D80000",
"V#	c #CF0000",
"W#	c #C80100",
"X#	c #C00301",
"Y#	c #BD0000",
"Z#	c #BD2D2D",
"`#	c #C86F6F",
" $	c #D29292",
".$	c #D58F8F",
"+$	c #E0CECE",
"@$	c #B1B0B0",
"#$	c #8E8E8E",
"$$	c #474747",
"%$	c #E2D4D4",
"&$	c #F9B9B9",
"*$	c #F7D6D6",
"=$	c #E38282",
"-$	c #D12424",
";$	c #C80000",
">$	c #BF0000",
",$	c #BC2525",
"'$	c #C45F5F",
")$	c #CD8282",
"!$	c #EBD0D0",
"~$	c #EFD3D3",
"{$	c #E7A0A0",
"]$	c #E7A3A3",
"^$	c #DCD2D2",
"/$	c #A6A6A6",
"($	c #878787",
"_$	c #3E3E3E",
":$	c #989393",
"<$	c #EDD3D3",
"[$	c #ECA8A8",
"}$	c #F0CBCB",
"|$	c #D87C7C",
"1$	c #D05050",
"2$	c #CD1F1F",
"3$	c #CA0000",
"4$	c #C00000",
"5$	c #BC1F1F",
"6$	c #C15050",
"7$	c #CA7878",
"8$	c #E9CECE",
"9$	c #ECD2D2",
"0$	c #DF9F9F",
"a$	c #DC9C9C",
"b$	c #E2C8C8",
"c$	c #DECFCF",
"d$	c #B4B0B0",
"e$	c #939393",
"f$	c #595959",
"g$	c #707171",
"h$	c #E4D6D6",
"i$	c #E99B9B",
"j$	c #F9E5E5",
"k$	c #F4DEDE",
"l$	c #ECC9C9",
"m$	c #D56D6D",
"n$	c #CF4747",
"o$	c #D04848",
"p$	c #CD4848",
"q$	c #C24747",
"r$	c #C76D6D",
"s$	c #E7C9C9",
"t$	c #E0A4A4",
"u$	c #DEA1A1",
"v$	c #E0C2C2",
"w$	c #D7C2C2",
"x$	c #A29E9E",
"y$	c #8F9090",
"z$	c #808080",
"A$	c #3F3F3F",
"B$	c #7F7F7F",
"C$	c #BBB5B5",
"D$	c #F9BDBD",
"E$	c #EBACAC",
"F$	c #EFCCCC",
"G$	c #EED1D1",
"H$	c #EDD1D1",
"I$	c #EBD1D1",
"J$	c #E2ABAB",
"K$	c #E0A8A8",
"L$	c #E1BEBE",
"M$	c #D8BEBE",
"N$	c #ACA6A6",
"O$	c #969797",
"P$	c #636363",
"Q$	c #555555",
"R$	c #616161",
"S$	c #5B5B5B",
"T$	c #737373",
"U$	c #B8B0B0",
"V$	c #DAB0B0",
"W$	c #EDC3C3",
"X$	c #F9C4C4",
"Y$	c #E8B3B3",
"Z$	c #E3AFAF",
"`$	c #E3AEAE",
" %	c #E4AEAE",
".%	c #E3B0B0",
"+%	c #E1B8B8",
"@%	c #DAB9B9",
"#%	c #BCB6B6",
"$%	c #ACADAD",
"%%	c #565656",
"&%	c #525252",
"*%	c #5C5C5C",
"=%	c #6A6A6A",
"-%	c #999A9A",
";%	c #BFBFBF",
">%	c #CFC6C6",
",%	c #F4CCCC",
"'%	c #ECC0C0",
")%	c #E8BDBD",
"!%	c #E6BCBC",
"~%	c #E0B3B3",
"{%	c #DEB1B1",
"]%	c #DAB3B3",
"^%	c #C3BCBC",
"/%	c #B5B5B5",
"(%	c #858585",
"_%	c #6D6D6D",
":%	c #919191",
"<%	c #ACACAC",
"[%	c #D8D8D8",
"}%	c #9C9C9C",
"|%	c #505151",
"1%	c #807F7F",
"2%	c #C4C3C3",
"3%	c #CFCECE",
"4%	c #C7C6C6",
"5%	c #CDCCCC",
"6%	c #C5C4C4",
"7%	c #8A8A8A",
"8%	c #727272",
"9%	c #535353",
"0%	c #585858",
"a%	c #6F6F6F",
"b%	c #A9A9A9",
"c%	c #BABABA",
"d%	c #CACACA",
"e%	c #DEDEDE",
"f%	c #D4D4D4",
"g%	c #525353",
"h%	c #7B7B7B",
"i%	c #7C7C7C",
"j%	c #828282",
"k%	c #989898",
"l%	c #646464",
"m%	c #606060",
"n%	c #5D5D5D",
"o%	c #7A7A7A",
"p%	c #8B8B8B",
"q%	c #9A9A9A",
"r%	c #AEAEAE",
"s%	c #CECECE",
"t%	c #E9E9E9",
"u%	c #E0E0E0",
"v%	c #575757",
"w%	c #696969",
"x%	c #7E7E7E",
"y%	c #484848",
"z%	c #888888",
"A%	c #999999",
"B%	c #BDBDBD",
"C%	c #D6D6D6",
"D%	c #E8E8E8",
"E%	c #D2D2D2",
"F%	c #BEBEBE",
"G%	c #B2B2B2",
"H%	c #A7A7A7",
"I%	c #6B6B6B",
"J%	c #707070",
"K%	c #9E9E9E",
"L%	c #ABABAB",
"M%	c #C5C5C5",
"N%	c #D1D1D1",
"O%	c #DBDBDB",
"P%	c #E7E7E7",
"Q%	c #DCDCDC",
"R%	c #C9C9C9",
"S%	c #C2C2C2",
"T%	c #C1C1C1",
"U%	c #B6B6B6",
"V%	c #C4C4C4",
"W%	c #D7D7D7",
"X%	c #DADADA",
"Y%	c #E5E5E5",
"Z%	c #EAEAEA",
"                          . + + + + + + + + + @                 ",
"                      # $ % & * * * * * = - ; > , '             ",
"                  ) ! ~ { ] ^ ^ ^ ^ ^ / ( _ : < [ } | 1         ",
"                2 3 4 5 6 7 8 8 8 8 8 9 0 a b c d e f g         ",
"            h i j k l m n o p q q r s t u v w x y z A B C       ",
"          D E F G H H I q J K K L M N O P Q R S T U V W X       ",
"          Y Z `  ...+.@.#.$.%.&.*.=.-.;.>.,.,.'.).!.~.{.].      ",
"        ^./.(._.:.<.[.}.|.%.1.=.2.-.3.>.,.,.,.4.5.6.7.8.9.0.    ",
"        a.b.c.d.e.f.|.|.|.&.=.g.g.h.>.,.,.,.,.i.j.k.l.m.n.o.    ",
"      p.q.r.s.t.u.v.w.x.y.z.A.g.B.C.D.,.,.E.F.G.H.I.J.K.L.f M.  ",
"      N.O.P.Q.R.S.T.U.V.W.X.Y.Z.`. +.+++@+#+$+%+&+*+=+-+;+>+,+  ",
"    '+)+!+~+{+]+^+/+(+_+:+<+[+}+|+1+2+3+4+5+6+7+8+9+=+-+0+a+b+C ",
"    c+d+e+f+g+h+i+j+k+l+m+n+o+p+q+r+s+t+u+_.v+w+x+y+=+y+z+A+B+X ",
"  C+D+E+F+G+H+I+J+K+L+M+N+O+P+Q+R+S+T+U+V+W+X+Y+Z+`+ @.@+@@@#@$@",
"  %@&@*@=@-@;@>@,@'@)@!@~@{@]@^@/@(@_@:@<@[@}@|@1@2@3@4@5@6@7@8@",
"'+9@0@a@b@c@d@e@f@g@h@i@j@k@l@m@n@o@p@q@r@s@t@u@v@w@x@y@z@A@C B@",
"C@D@U E@F@G@H@I@J@K@L@M@N@O@P@Q@R@S@T@U@V@W@X@Y@Z@`@ #.#+#) @#  ",
"p.##$#%#&#*#=#-#;#>#,#'#)#!#~#V@{#]#^#/#(#_#:#<#=+[#}#|#1#2#3#  ",
"4#5#E+6#7#8#9#0#a#b#c#d#e#f#g#h#i#j#k#l#m#n#o#`+t@p#q#r#s#t#    ",
"  u#v#w#x#y#z#A#B#C#D#D#D#D#D#D#E#F#G#H#I#J#K#L#M#N#O#P#Q#R#    ",
"  ^.##S#l@T#U#V#D#D#D#D#D#D#D#D#W#X#Y#n#Z#`# $s@.$+$@$#$$$      ",
"  C@%$&$*$=$-$D#D#D#D#D#D#D#D#;$>$n#,$'$)$!$~${$]$^$/$($_$      ",
"    :$<$[$}$|$1$2$D#D#D#D#D#3$4$5$6$7$8$9$0$a$b$c$d$e$f$        ",
"    g$h$i$j$k$l$m$n$o$o$o$o$p$q$r$s$!$t$u$v$w$x$y$z$B A$        ",
"    B$C$s@D$r+E$F$G$G$G$G$G$H$I$b.J$K$L$M$N$O$P$Q$R$S$          ",
"      T$U$V$W$6#X$Y$Z$Z$`$`$`$ %.%+%@%#%$%1 %%| &%) *%          ",
"      X =%-%;%>%,%'%)%!%~%{%{%{%]%^%/%(%%@_%%%A$&%:%<%[%        ",
"      }%S$|%Q#1%2%3%3%3%4%4%5%3%6%7%h h 8%9%$$0%a%b%c%d%e%      ",
"      f%}%P$,+g%f$g s#h%i%j%k%}%k%h%l%m%n%) | o%j%p%q%r%s%t%    ",
"        u%b%T$m%0%%%v%R$l%w%x%j%x%Q#y%| @ h%(%z%p%A%a+B%C%t%    ",
"        D%E%F%G%H%}%%@I%I%I%w%s#s#J%B K%/$L%G%/%c%M%N%O%P%      ",
"          D%Q%[%f%R%S%T%T%F%U%F%T%T%V%R%f%W%[%X%Y%t%Z%          "};
